<svg width="60" height="60" viewBox="0 0 60 60" fill="none" xmlns="http://www.w3.org/2000/svg">
<g clip-path="url(#clip0)">
<rect width="60" height="60" fill="white"/>
<mask id="mask0" mask-type="alpha" maskUnits="userSpaceOnUse" x="4" y="0" width="53" height="60">
<path d="M56.3296 0.60972C54.9789 -1.59524 22.7703 6.15222 19.8597 7.22776C16.949 8.3033 19.8597 40.8982 19.8597 40.8982C18.8068 43.7573 15.3241 43.1546 12.8028 43.7573C7.36711 45.0565 3.80755 49.5377 4.85243 53.7683C5.89732 57.9988 11.1505 60.3757 16.5856 59.0772C21.7107 57.8522 25.1661 53.7977 24.6688 49.7932C24.6688 49.7932 22.8869 26.0306 24.6688 22.2127C26.4507 18.3947 48.105 15.0747 50.3318 17.9086C52.5587 20.7425 51.3434 34.7205 51.3434 34.7205C51.3434 36.4053 46.8891 36.7985 44.4139 37.3901C38.9783 38.6886 35.4187 43.1699 36.4636 47.401C37.5079 51.6315 42.761 54.0079 48.1967 52.7093C52.943 51.575 56.2584 48.0138 56.3278 44.313L56.3296 44.3154C56.3296 44.3154 57.6803 2.81468 56.3296 0.60972Z" fill="black"/>
</mask>
<g mask="url(#mask0)">
<rect x="1.12855" y="-1.57544" width="58.7428" height="63.1514" fill="url(#paint0_linear)"/>
</g>
</g>
<defs>
<linearGradient id="paint0_linear" x1="16.6716" y1="3.45322" x2="41.9727" y2="52.6179" gradientUnits="userSpaceOnUse">
<stop stop-color="#7F95D1"/>
<stop offset="1" stop-color="#F2FFE7"/>
</linearGradient>
<clipPath id="clip0">
<rect width="60" height="60" fill="white"/>
</clipPath>
</defs>
</svg>
